<svg xmlns="http://www.w3.org/2000/svg" viewBox="0 0 531.82 531.82"><title>z</title><path d="M340.27,171.73c138.23,138.22,212.55,288,166,334.55S310,478.5,171.73,340.27-40.82,52.26,5.72,5.72s196.33,27.78,334.55,166Z" transform="translate(9.91 9.91)" style="fill:none;stroke:#1e1f1d;stroke-miterlimit:10;stroke-width:3.5px"/><path d="M340.27,340.27c-138.22,138.23-288,212.55-334.55,166S33.5,310,171.73,171.73s288-212.55,334.55-166-27.78,196.32-166,334.54Z" transform="translate(9.91 9.91)" style="fill:none;stroke:#1e1f1d;stroke-miterlimit:10;stroke-width:3.5px"/><path d="M256,140.8C256,226.07,226.07,256,140.8,256,226.07,256,256,285.92,256,371.2,256,285.92,285.92,256,371.2,256,285.92,256,256,226.07,256,140.8Z" transform="translate(9.91 9.91)" style="fill:#1e1f1d"/></svg>