<svg xmlns="http://www.w3.org/2000/svg" viewBox="0 0 386.7966 180.8885">
  <title>logo</title>
  <path
    d="M87.6169,0V96.6189L50.1445,0H49.46L21.3923,72.3924l-3.7647,9.7548Q4.6193,115.5209,0,126.6442H7.7011A284.977,284.977,0,0,1,20.1948,85.2287H73.7615l13.8327,35.9936a162.4056,162.4056,0,0,1-1.689,24.24,48.9946,48.9946,0,0,1-7.1876,18.4824q-5.3064,7.7019-16.601,14.8894l1.1981,2.0543q14.2074-7.7018,20.3658-14.2054a37.8021,37.8021,0,0,0,9.7548-18.1405q3.0806-11.4627,3.0809-32.346V0ZM21.2214,82.1472,24.6442,73.42l22.2485-57.503L72.5634,82.1472Z"
     />
  <path
    d="M178.2076,8.1449H181.17q-1.9553,5.1563-5.6874,16.2924l-.889,2.6069-8.4719,24.9994h-.2368L153.74,15.7286l-12.3813,36.315h-.2377l-14.81-43.8987h4.3247l12.1454,36.3167L155.1621,8.1449h.2368l12.1444,36.2575,5.9243-17.7134A102.6253,102.6253,0,0,0,178.2076,8.1449Z"
     />
  <path
    d="M207.5318,33.3829H184.131a11.2572,11.2572,0,0,0-.0592,1.5393q0,6.9326,3.2581,11.02a10.1568,10.1568,0,0,0,8.2942,4.0888,12.3831,12.3831,0,0,0,5.9243-1.6,13.1211,13.1211,0,0,0,4.7984-4.383l.7113.4144q-4.8589,7.5246-12.8558,7.5228a13.2237,13.2237,0,0,1-10.249-4.4423q-4.03-4.4431-4.0287-11.4932,0-7.4061,4.3248-12.026a14.3616,14.3616,0,0,1,10.96-4.6217q5.8048,0,9.0935,3.7318T207.5318,33.3829ZM184.19,32.4356h19.4313q0-5.5681-2.3692-8.8864a7.5228,7.5228,0,0,0-6.4579-3.3191,9.1419,9.1419,0,0,0-7.1084,3.3783A15.6364,15.6364,0,0,0,184.19,32.4356Z"
     />
  <path
    d="M240.5877,35.22a16.6935,16.6935,0,0,1-4.3247,12.0547,14.3709,14.3709,0,0,1-20.9716.3265l-2.4284,3.7318h-.2377V4.65L216.18,3.2881h.2368V24.3189a14.7406,14.7406,0,0,1,10.7818-4.9177,12.0685,12.0685,0,0,1,9.5681,4.4728A16.8547,16.8547,0,0,1,240.5877,35.22Zm-4.1462.5328q0-6.6957-2.9325-10.7235a8.864,8.864,0,0,0-7.4349-4.0278,11.3811,11.3811,0,0,0-5.0657,1.2738,15.1135,15.1135,0,0,0-4.5912,3.5237V45.1129a10.8831,10.8831,0,0,0,3.7919,4.3238,9.4242,9.4242,0,0,0,13.1214-2.6355Q236.4415,42.5652,236.4415,35.7529Z"
     />
  <path
    d="M166.7737,100.2662q0,10.31-6.1019,16.2028-6.1023,5.8964-16.47,5.8955H130.28V79.2354h14.5145q10.13,0,16.0547,5.54Q166.7728,90.3142,166.7737,100.2662Zm-4.5024.357q0-9.1231-4.9769-14.7818a16.5945,16.5945,0,0,0-13.0927-5.6569h-9.8928v40.698a63.7618,63.7618,0,0,0,10.4858.5347q8.2337,0,12.8558-5.4506T162.2713,100.6232Z"
     />
  <path
    d="M198.6455,104.4734H175.2446a11.2778,11.2778,0,0,0-.0592,1.5394q0,6.9326,3.2582,11.02a10.1569,10.1569,0,0,0,8.2942,4.0889,12.3825,12.3825,0,0,0,5.9242-1.6,13.12,13.12,0,0,0,4.7984-4.3831l.7114.4145q-4.8589,7.5246-12.8558,7.5228a13.2236,13.2236,0,0,1-10.249-4.4423q-4.03-4.4432-4.0287-11.4932,0-7.4061,4.3248-12.026a14.3612,14.3612,0,0,1,10.96-4.6217q5.8048,0,9.0935,3.7318T198.6455,104.4734Zm-23.3417-.9473h19.4314q0-5.568-2.3692-8.8863a7.5228,7.5228,0,0,0-6.458-3.3191A9.1417,9.1417,0,0,0,178.8,94.699,15.6368,15.6368,0,0,0,175.3038,103.5261Z"
     />
  <path
    d="M224.4746,91.2023h2.9029q-2.6655,5.5707-7.6421,17.3582l-6.161,14.5145H213.1L199.5928,91.2023h4.0287l11.1379,26.3037,3.9686-9.3008Q223.8225,96.24,224.4746,91.2023Z"
     />
  <path
    d="M255.4592,104.4734H232.0584a11.26,11.26,0,0,0-.0592,1.5394q0,6.9326,3.2582,11.02a10.1567,10.1567,0,0,0,8.2942,4.0889,12.3828,12.3828,0,0,0,5.9242-1.6,13.12,13.12,0,0,0,4.7984-4.3831l.7114.4145q-4.859,7.5246-12.8558,7.5228a13.2235,13.2235,0,0,1-10.249-4.4423q-4.03-4.4432-4.0287-11.4932,0-7.4061,4.3247-12.026a14.3615,14.3615,0,0,1,10.96-4.6217q5.8048,0,9.0935,3.7318T255.4592,104.4734Zm-23.3416-.9473h19.4313q0-5.568-2.3691-8.8863a7.5228,7.5228,0,0,0-6.458-3.3191,9.1417,9.1417,0,0,0-7.1083,3.3783A15.6368,15.6368,0,0,0,232.1176,103.5261Z"
     />
  <path d="M260.7905,122.3645V75.7405l3.495-1.3618h.2368v47.9858Z"  />
  <path
    d="M270.09,106.9619a16.4291,16.4291,0,0,1,4.4135-11.8789,14.7665,14.7665,0,0,1,11.1084-4.5912,14.2639,14.2639,0,0,1,10.8114,4.3848q4.1767,4.3841,4.1767,11.73a16.4913,16.4913,0,0,1-4.3839,11.8771,14.6676,14.6676,0,0,1-11.0788,4.5912,14.3568,14.3568,0,0,1-10.841-4.3831Q270.09,114.308,270.09,106.9619Zm26.3629,0q0-6.9326-3.1693-11.2869a9.5735,9.5735,0,0,0-8.027-4.3543,9.447,9.447,0,0,0-7.9094,4.2359q-3.11,4.2387-3.11,11.05,0,6.93,3.1693,11.285a9.5716,9.5716,0,0,0,8.0278,4.3544,9.4412,9.4412,0,0,0,7.9086-4.236Q296.4528,113.7743,296.4533,106.9619Z"
     />
  <path
    d="M333.8941,106.3106a16.7572,16.7572,0,0,1-4.2952,12.0548,13.4563,13.4563,0,0,1-10.5746,4.71,13.2957,13.2957,0,0,1-9.2415-3.6134v16.4109h-3.7919V91.9737l3.555-1.3043h.2369v4.74q4.7983-4.9168,10.7226-4.9177a12.0686,12.0686,0,0,1,9.5681,4.4728A16.86,16.86,0,0,1,333.8941,106.3106Zm-4.1463.5329q0-6.6957-2.9029-10.7235a8.7894,8.7894,0,0,0-7.4052-4.0278,11.3815,11.3815,0,0,0-5.0658,1.2738,15.1143,15.1143,0,0,0-4.5911,3.5237v19.2545a10.46,10.46,0,0,0,3.7022,4.3831,9.5183,9.5183,0,0,0,13.1814-2.6069Q329.7465,113.7168,329.7478,106.8435Z"
     />
  <path
    d="M365.233,104.4734H341.8322a11.26,11.26,0,0,0-.0592,1.5394q0,6.9326,3.2581,11.02a10.1571,10.1571,0,0,0,8.2943,4.0889,12.3828,12.3828,0,0,0,5.9242-1.6,13.1205,13.1205,0,0,0,4.7984-4.3831l.7114.4145q-4.859,7.5246-12.8559,7.5228a13.2234,13.2234,0,0,1-10.2489-4.4423q-4.03-4.4432-4.0287-11.4932,0-7.4061,4.3247-12.026a14.3614,14.3614,0,0,1,10.96-4.6217q5.805,0,9.0936,3.7318T365.233,104.4734Zm-23.3416-.9473h19.4313q0-5.568-2.3691-8.8863a7.5229,7.5229,0,0,0-6.458-3.3191,9.1415,9.1415,0,0,0-7.1083,3.3783A15.6368,15.6368,0,0,0,341.8914,103.5261Z"
     />
  <path
    d="M386.7966,90.9654l-1.3034,3.199a8.0911,8.0911,0,0,0-3.3182-.71q-4.8576,0-8.0566,5.569v23.3416h-3.7919V91.9737l3.4959-1.3043h.2368v6.8733q4.088-6.9325,9.8345-6.9325A11.9372,11.9372,0,0,1,386.7966,90.9654Z"
     />
</svg>